<svg xmlns="http://www.w3.org/2000/svg" viewBox="0 0 336 336"><defs><style>.cls-1{fill:#fff;}</style></defs><title>Asset 7</title><g id="Layer_2" data-name="Layer 2"><g id="Layer_1-2" data-name="Layer 1"><circle cx="168" cy="168" r="168"/><path class="cls-1" d="M239.91,163.38c35.66,0,64.57,18.45,64.57,41.21s-28.91,41.21-64.57,41.21c-30.15,0-55.47-13.19-62.58-31H41.72a10.2,10.2,0,0,1,0-20.39H177.34C184.45,176.57,209.77,163.38,239.91,163.38Z"/><path class="cls-1" d="M31.37,92.86v12.37h81.37a4.74,4.74,0,1,1,0,9.47H31.37v13.78h81.37a4.74,4.74,0,1,1,0,9.47H31.37v13.78h81.37a4.74,4.74,0,1,1,0,9.47H31.37v12.37A41.8,41.8,0,0,0,42.13,175H111a41.78,41.78,0,0,0,40.49-31.52,10.27,10.27,0,0,0,1.27.09H297.1a10.33,10.33,0,1,0,0-20.67H152.78a10.27,10.27,0,0,0-1.27.09A41.78,41.78,0,0,0,111,91.45H42.13A41.8,41.8,0,0,0,31.37,92.86Z"/></g></g></svg>